# Blender 3.3.0
# www.blender.org
mtllib star.mtl
o Star
v 0.000000 -0.156402 -1.000000
v 0.000000 0.144145 -1.000000
v 0.951057 -0.156402 -0.309017
v 0.951057 0.144145 -0.309017
v 0.587785 -0.156402 0.809017
v 0.587785 0.144145 0.809017
v -0.587785 -0.156402 0.809017
v -0.587785 0.144145 0.809017
v -0.951057 -0.156402 -0.309017
v -0.951057 0.144145 -0.309017
v 0.253046 -0.151689 -0.348288
v 0.253046 0.144146 -0.348288
v 0.409409 -0.151696 0.133025
v 0.409409 0.144153 0.133025
v -0.000000 -0.151689 0.430508
v 0.000000 0.144146 0.430508
v -0.409409 -0.151696 0.133025
v -0.409409 0.144153 0.133025
v -0.253046 -0.151689 -0.348288
v -0.253046 0.144146 -0.348288
vn 0.0562 -0.0000 -0.9984
vn 0.9669 -0.0000 -0.2551
vn 0.5414 -0.0000 0.8408
vn -0.0000 1.0000 -0.0000
vn -0.6323 -0.0000 0.7747
vn -0.9322 -0.0000 -0.3620
vn -0.0000 -1.0000 -0.0000
vn -0.0562 -0.0000 -0.9984
vn -0.9669 -0.0000 -0.2551
vn -0.5414 -0.0000 0.8408
vn 0.6323 -0.0000 0.7747
vn 0.9322 -0.0000 -0.3620
vn -0.0000 -1.0000 0.0072
vn -0.0069 -1.0000 0.0022
vn -0.0043 -1.0000 -0.0058
vn 0.0043 -1.0000 -0.0058
vn 0.0069 -1.0000 0.0022
vt 0.000000 0.500000
vt 1.000000 0.500000
vt 0.750000 0.490000
vt 0.250000 0.490000
vt 0.000000 1.000000
vt 1.000000 1.000000
vt 0.800000 0.500000
vt 0.978254 0.324164
vt 0.478254 0.324164
vt 0.800000 1.000000
vt 0.600000 0.500000
vt 0.891068 0.055836
vt 0.391068 0.055836
vt 0.600000 1.000000
vt 0.400000 0.500000
vt 0.608932 0.055836
vt 0.108932 0.055836
vt 0.400000 1.000000
vt 0.200000 0.500000
vt 0.521746 0.324164
vt 0.021746 0.324164
vt 0.200000 1.000000
vt 0.864127 0.407082
vt 0.900000 0.500000
vt 0.364127 0.407082
vt 0.900000 1.000000
vt 0.934661 0.190000
vt 0.700000 0.500000
vt 0.434661 0.190000
vt 0.700000 1.000000
vt 0.750000 0.055836
vt 0.500000 0.500000
vt 0.250000 0.055836
vt 0.500000 1.000000
vt 0.565339 0.190000
vt 0.300000 0.500000
vt 0.065339 0.190000
vt 0.300000 1.000000
vt 0.635873 0.407082
vt 0.100000 0.500000
vt 0.135873 0.407082
vt 0.100000 1.000000
s 0
f 11/24/1 4/10/1 3/7/1
f 13/28/2 6/14/2 5/11/2
f 15/32/3 8/18/3 7/15/3
f 20/41/4 16/33/4 14/29/4
f 17/36/5 10/22/5 9/19/5
f 19/40/6 2/5/6 1/1/6
f 13/27/7 17/35/7 19/39/7
f 10/22/8 19/40/8 9/19/8
f 8/18/9 17/36/9 7/15/9
f 6/14/10 15/32/10 5/11/10
f 4/10/11 13/28/11 3/7/11
f 2/6/12 11/24/12 1/2/12
f 11/24/1 12/26/1 4/10/1
f 13/28/2 14/30/2 6/14/2
f 15/32/3 16/34/3 8/18/3
f 14/29/4 4/9/4 12/25/4
f 12/25/4 2/4/4 20/41/4
f 20/41/4 10/21/4 18/37/4
f 18/37/4 8/17/4 16/33/4
f 16/33/4 6/13/4 14/29/4
f 14/29/4 12/25/4 20/41/4
f 20/41/4 18/37/4 16/33/4
f 17/36/5 18/38/5 10/22/5
f 19/40/6 20/42/6 2/5/6
f 19/39/13 1/3/13 11/23/13
f 11/23/14 3/8/14 13/27/14
f 13/27/15 5/12/15 15/31/15
f 15/31/16 7/16/16 17/35/16
f 17/35/17 9/20/17 19/39/17
f 19/39/7 11/23/7 13/27/7
f 13/27/7 15/31/7 17/35/7
f 10/22/8 20/42/8 19/40/8
f 8/18/9 18/38/9 17/36/9
f 6/14/10 16/34/10 15/32/10
f 4/10/11 14/30/11 13/28/11
f 2/6/12 12/26/12 11/24/12
